<mxfile host="65bd71144e">
    <diagram id="LfCzdrSlMp3ZznfIHX8q" name="Consolidated_ER_diagram">
        <mxGraphModel dx="662" dy="665" grid="0" gridSize="10" guides="1" tooltips="1" connect="1" arrows="1" fold="1" page="1" pageScale="1" pageWidth="850" pageHeight="1100" background="#ffffff" math="0" shadow="0">
            <root>
                <mxCell id="0"/>
                <mxCell id="1" parent="0"/>
                <mxCell id="120" value="FirstName" style="ellipse;whiteSpace=wrap;html=1;align=center;fillColor=#f5f5f5;strokeColor=#666666;fontColor=#0A0A0A;" vertex="1" parent="1">
                    <mxGeometry x="96.5" y="162.5" width="80" height="20" as="geometry"/>
                </mxCell>
                <mxCell id="121" value="Citizen" style="whiteSpace=wrap;html=1;align=center;fontStyle=1;fillColor=#d5e8d4;strokeColor=#82b366;fontColor=#0A0A0A;" vertex="1" parent="1">
                    <mxGeometry x="254" y="215.5" width="100" height="40" as="geometry"/>
                </mxCell>
                <mxCell id="122" value="PhoneNumber" style="ellipse;whiteSpace=wrap;html=1;align=center;fillColor=#f5f5f5;strokeColor=#666666;fontColor=#0A0A0A;" vertex="1" parent="1">
                    <mxGeometry x="96.5" y="215.5" width="98.5" height="20" as="geometry"/>
                </mxCell>
                <mxCell id="123" value="Email" style="ellipse;whiteSpace=wrap;html=1;align=center;fillColor=#f5f5f5;strokeColor=#666666;fontColor=#0A0A0A;" vertex="1" parent="1">
                    <mxGeometry x="176.5" y="235.5" width="50" height="20" as="geometry"/>
                </mxCell>
                <mxCell id="124" value="Category" style="ellipse;whiteSpace=wrap;html=1;align=center;fillColor=#f5f5f5;strokeColor=#666666;fontColor=#0A0A0A;" vertex="1" parent="1">
                    <mxGeometry x="153.5" y="139" width="70" height="20" as="geometry"/>
                </mxCell>
                <mxCell id="125" value="" style="endArrow=none;html=1;rounded=0;entryX=0;entryY=0;entryDx=0;entryDy=0;exitX=1;exitY=0.5;exitDx=0;exitDy=0;fontColor=#0A0A0A;strokeColor=#030303;" edge="1" parent="1" source="120" target="121">
                    <mxGeometry relative="1" as="geometry">
                        <mxPoint x="254" y="65.5" as="sourcePoint"/>
                        <mxPoint x="414" y="65.5" as="targetPoint"/>
                    </mxGeometry>
                </mxCell>
                <mxCell id="126" value="" style="endArrow=none;html=1;rounded=0;exitX=1;exitY=0.5;exitDx=0;exitDy=0;entryX=0;entryY=0.5;entryDx=0;entryDy=0;fontColor=#0A0A0A;strokeColor=#030303;" edge="1" parent="1" source="122" target="121">
                    <mxGeometry relative="1" as="geometry">
                        <mxPoint x="264" y="75.5" as="sourcePoint"/>
                        <mxPoint x="294" y="145.5" as="targetPoint"/>
                    </mxGeometry>
                </mxCell>
                <mxCell id="127" value="" style="endArrow=none;html=1;rounded=0;entryX=0;entryY=0.75;entryDx=0;entryDy=0;exitX=1;exitY=0.5;exitDx=0;exitDy=0;fontColor=#0A0A0A;strokeColor=#030303;" edge="1" parent="1" source="123" target="121">
                    <mxGeometry relative="1" as="geometry">
                        <mxPoint x="284" y="95.5" as="sourcePoint"/>
                        <mxPoint x="299" y="175.5" as="targetPoint"/>
                    </mxGeometry>
                </mxCell>
                <mxCell id="128" value="Facilitiy" style="whiteSpace=wrap;html=1;align=center;fontStyle=1;fillColor=#d5e8d4;strokeColor=#82b366;fontColor=#0A0A0A;rounded=1;" vertex="1" parent="1">
                    <mxGeometry x="443.5" y="359" width="100" height="40" as="geometry"/>
                </mxCell>
                <mxCell id="129" value="Kind" style="ellipse;whiteSpace=wrap;html=1;align=center;fillColor=#f5f5f5;strokeColor=#666666;fontColor=#0A0A0A;" vertex="1" parent="1">
                    <mxGeometry x="514" y="309" width="50" height="20" as="geometry"/>
                </mxCell>
                <mxCell id="130" value="Item" style="rounded=1;arcSize=10;whiteSpace=wrap;html=1;align=center;fontStyle=1;fillColor=#d5e8d4;strokeColor=#82b366;fontColor=#0A0A0A;" vertex="1" parent="1">
                    <mxGeometry x="329" y="537.6600000000001" width="100" height="40" as="geometry"/>
                </mxCell>
                <mxCell id="131" value="Name" style="ellipse;whiteSpace=wrap;html=1;align=center;fillColor=#f5f5f5;strokeColor=#666666;fontColor=#0A0A0A;" vertex="1" parent="1">
                    <mxGeometry x="251.5" y="555.71" width="50" height="20" as="geometry"/>
                </mxCell>
                <mxCell id="132" value="Amount" style="ellipse;whiteSpace=wrap;html=1;align=center;fillColor=#f5f5f5;strokeColor=#666666;fontColor=#0A0A0A;" vertex="1" parent="1">
                    <mxGeometry x="456.5" y="546.0000000000002" width="50" height="23.33" as="geometry"/>
                </mxCell>
                <mxCell id="133" value="" style="endArrow=none;html=1;rounded=0;entryX=0;entryY=0.5;entryDx=0;entryDy=0;exitX=1;exitY=0.5;exitDx=0;exitDy=0;fontColor=#0A0A0A;strokeColor=#0A0A0A;" edge="1" parent="1" source="131" target="130">
                    <mxGeometry relative="1" as="geometry">
                        <mxPoint x="429" y="357.6599999999999" as="sourcePoint"/>
                        <mxPoint x="499" y="317.6599999999999" as="targetPoint"/>
                    </mxGeometry>
                </mxCell>
                <mxCell id="134" value="" style="endArrow=none;html=1;rounded=0;entryX=1;entryY=0.5;entryDx=0;entryDy=0;exitX=0;exitY=0.5;exitDx=0;exitDy=0;fontColor=#0A0A0A;strokeColor=#030303;" edge="1" parent="1" source="132" target="130">
                    <mxGeometry relative="1" as="geometry">
                        <mxPoint x="319" y="567.6600000000001" as="sourcePoint"/>
                        <mxPoint x="374" y="537.6600000000001" as="targetPoint"/>
                    </mxGeometry>
                </mxCell>
                <mxCell id="135" value="Makes" style="shape=rhombus;perimeter=rhombusPerimeter;whiteSpace=wrap;html=1;align=center;fillColor=#dae8fc;strokeColor=#6c8ebf;fontStyle=0;fontColor=#0A0A0A;" vertex="1" parent="1">
                    <mxGeometry x="380.5" y="134.5" width="80" height="40" as="geometry"/>
                </mxCell>
                <mxCell id="136" value="" style="endArrow=none;html=1;rounded=0;exitX=1;exitY=0.75;exitDx=0;exitDy=0;entryX=0;entryY=0.5;entryDx=0;entryDy=0;fontColor=#0A0A0A;strokeColor=#030303;" edge="1" parent="1" source="121" target="135">
                    <mxGeometry relative="1" as="geometry">
                        <mxPoint x="548.2" y="-61" as="sourcePoint"/>
                        <mxPoint x="550" y="-30.480000000000018" as="targetPoint"/>
                    </mxGeometry>
                </mxCell>
                <mxCell id="137" value="1" style="edgeLabel;html=1;align=center;verticalAlign=middle;resizable=0;points=[];fontColor=#030303;labelBackgroundColor=none;" connectable="0" vertex="1" parent="136">
                    <mxGeometry x="-0.6941" relative="1" as="geometry">
                        <mxPoint x="5" y="7" as="offset"/>
                    </mxGeometry>
                </mxCell>
                <mxCell id="138" value="Booking" style="rounded=1;arcSize=10;whiteSpace=wrap;html=1;align=center;fontStyle=1;fillColor=#d5e8d4;strokeColor=#82b366;fontColor=#0A0A0A;" vertex="1" parent="1">
                    <mxGeometry x="536.5" y="134.5" width="100" height="40" as="geometry"/>
                </mxCell>
                <mxCell id="139" value="Document" style="ellipse;whiteSpace=wrap;html=1;align=center;fillColor=#f5f5f5;strokeColor=#666666;fontColor=#0A0A0A;" vertex="1" parent="1">
                    <mxGeometry x="701.5" y="130.5" width="75" height="22" as="geometry"/>
                </mxCell>
                <mxCell id="140" value="&lt;span style=&quot;border-bottom: 1px dotted&quot;&gt;Note&lt;/span&gt;" style="ellipse;whiteSpace=wrap;html=1;align=center;fillColor=#f5f5f5;strokeColor=#666666;fontColor=#0A0A0A;" vertex="1" parent="1">
                    <mxGeometry x="701.5" y="99.5" width="50" height="20" as="geometry"/>
                </mxCell>
                <mxCell id="141" value="Maintenance Intervention" style="rounded=1;arcSize=10;whiteSpace=wrap;html=1;align=center;fontStyle=1;fillColor=#d5e8d4;strokeColor=#82b366;fontColor=#0A0A0A;" vertex="1" parent="1">
                    <mxGeometry x="682" y="393" width="100" height="40" as="geometry"/>
                </mxCell>
                <mxCell id="142" value="" style="endArrow=none;html=1;rounded=0;exitX=1;exitY=0.25;exitDx=0;exitDy=0;entryX=0;entryY=0.5;entryDx=0;entryDy=0;fontColor=#0A0A0A;strokeColor=#030303;" edge="1" parent="1" source="138" target="139">
                    <mxGeometry relative="1" as="geometry">
                        <mxPoint x="771.5" y="324.5" as="sourcePoint"/>
                        <mxPoint x="696.5" y="124.5" as="targetPoint"/>
                    </mxGeometry>
                </mxCell>
                <mxCell id="143" value="" style="endArrow=none;html=1;rounded=0;entryX=0;entryY=0.5;entryDx=0;entryDy=0;exitX=1;exitY=0;exitDx=0;exitDy=0;fontColor=#0A0A0A;strokeColor=#030303;" edge="1" parent="1" source="138" target="140">
                    <mxGeometry relative="1" as="geometry">
                        <mxPoint x="701.5" y="214.5" as="sourcePoint"/>
                        <mxPoint x="646.5" y="304.5" as="targetPoint"/>
                    </mxGeometry>
                </mxCell>
                <mxCell id="144" value="Date" style="ellipse;whiteSpace=wrap;html=1;align=center;fillColor=#f5f5f5;strokeColor=#666666;fontColor=#0A0A0A;" vertex="1" parent="1">
                    <mxGeometry x="690" y="456" width="50" height="20" as="geometry"/>
                </mxCell>
                <mxCell id="145" value="Description" style="ellipse;whiteSpace=wrap;html=1;align=center;fillColor=#f5f5f5;strokeColor=#666666;fontColor=#0A0A0A;" vertex="1" parent="1">
                    <mxGeometry x="702" y="483" width="80" height="20" as="geometry"/>
                </mxCell>
                <mxCell id="146" value="" style="endArrow=none;html=1;rounded=0;entryX=0.5;entryY=0;entryDx=0;entryDy=0;exitX=0.5;exitY=1;exitDx=0;exitDy=0;fontColor=#0A0A0A;strokeColor=#030303;" edge="1" parent="1" source="141" target="144">
                    <mxGeometry relative="1" as="geometry">
                        <mxPoint x="813.5" y="829" as="sourcePoint"/>
                        <mxPoint x="773.5" y="839" as="targetPoint"/>
                    </mxGeometry>
                </mxCell>
                <mxCell id="147" value="" style="endArrow=none;html=1;rounded=0;entryX=0.5;entryY=0;entryDx=0;entryDy=0;exitX=0.75;exitY=1;exitDx=0;exitDy=0;fontColor=#0A0A0A;strokeColor=#030303;" edge="1" parent="1" source="141" target="145">
                    <mxGeometry relative="1" as="geometry">
                        <mxPoint x="828.5" y="409.0000000000002" as="sourcePoint"/>
                        <mxPoint x="783.5" y="459" as="targetPoint"/>
                    </mxGeometry>
                </mxCell>
                <mxCell id="148" value="" style="endArrow=none;html=1;rounded=0;exitX=0.5;exitY=1;exitDx=0;exitDy=0;entryX=0.25;entryY=0;entryDx=0;entryDy=0;fontColor=#0A0A0A;strokeColor=#030303;" edge="1" parent="1" source="124" target="121">
                    <mxGeometry relative="1" as="geometry">
                        <mxPoint x="224" y="25.5" as="sourcePoint"/>
                        <mxPoint x="244" y="145.5" as="targetPoint"/>
                    </mxGeometry>
                </mxCell>
                <mxCell id="149" value="&lt;span style=&quot;border-bottom: 1px dotted&quot;&gt;CVR&lt;/span&gt;" style="ellipse;whiteSpace=wrap;html=1;align=center;fillColor=#f5f5f5;strokeColor=#666666;fontColor=#0A0A0A;" vertex="1" parent="1">
                    <mxGeometry x="224" y="152.5" width="50" height="20" as="geometry"/>
                </mxCell>
                <mxCell id="150" value="" style="endArrow=none;html=1;rounded=0;entryX=0.5;entryY=0;entryDx=0;entryDy=0;exitX=0.5;exitY=1;exitDx=0;exitDy=0;fontColor=#0A0A0A;strokeColor=#030303;" edge="1" parent="1" source="149" target="121">
                    <mxGeometry relative="1" as="geometry">
                        <mxPoint x="174.00000000000006" y="175.5" as="sourcePoint"/>
                        <mxPoint x="254" y="175.5" as="targetPoint"/>
                    </mxGeometry>
                </mxCell>
                <mxCell id="151" value="" style="endArrow=none;html=1;rounded=0;entryX=0.75;entryY=0;entryDx=0;entryDy=0;exitX=0;exitY=1;exitDx=0;exitDy=0;fontColor=#0A0A0A;strokeColor=#030303;" edge="1" parent="1" source="129" target="128">
                    <mxGeometry relative="1" as="geometry">
                        <mxPoint x="453.5" y="449" as="sourcePoint"/>
                        <mxPoint x="378.50000000000006" y="619" as="targetPoint"/>
                    </mxGeometry>
                </mxCell>
                <mxCell id="152" value="" style="endArrow=none;html=1;rounded=0;exitX=1;exitY=0.5;exitDx=0;exitDy=0;entryX=0;entryY=0.5;entryDx=0;entryDy=0;fontColor=#0A0A0A;strokeColor=#030303;" edge="1" parent="1" source="135" target="138">
                    <mxGeometry relative="1" as="geometry">
                        <mxPoint x="491.5" y="-31.5" as="sourcePoint"/>
                        <mxPoint x="501.5" y="38.5" as="targetPoint"/>
                    </mxGeometry>
                </mxCell>
                <mxCell id="153" value="0..n" style="edgeLabel;html=1;align=center;verticalAlign=middle;resizable=0;points=[];fontColor=#030303;labelBackgroundColor=none;" connectable="0" vertex="1" parent="152">
                    <mxGeometry x="0.4758" y="-5" relative="1" as="geometry">
                        <mxPoint x="5" y="3" as="offset"/>
                    </mxGeometry>
                </mxCell>
                <mxCell id="154" value="" style="endArrow=none;html=1;rounded=0;exitX=0.5;exitY=0;exitDx=0;exitDy=0;entryX=0;entryY=0.5;entryDx=0;entryDy=0;fontColor=#0A0A0A;strokeColor=#030303;" edge="1" parent="1" source="128" target="155">
                    <mxGeometry relative="1" as="geometry">
                        <mxPoint x="373.5" y="89" as="sourcePoint"/>
                        <mxPoint x="283.5" y="139" as="targetPoint"/>
                    </mxGeometry>
                </mxCell>
                <mxCell id="155" value="Reserves-a" style="shape=rhombus;perimeter=rhombusPerimeter;whiteSpace=wrap;html=1;align=center;fillColor=#dae8fc;strokeColor=#6c8ebf;fontStyle=0;fontColor=#0A0A0A;" vertex="1" parent="1">
                    <mxGeometry x="494" y="239" width="86" height="40" as="geometry"/>
                </mxCell>
                <mxCell id="156" value="" style="endArrow=none;html=1;rounded=0;fontColor=#0A0A0A;strokeColor=#030303;exitX=1;exitY=0.5;exitDx=0;exitDy=0;" edge="1" parent="1" source="155" target="138">
                    <mxGeometry relative="1" as="geometry">
                        <mxPoint x="616" y="195" as="sourcePoint"/>
                        <mxPoint x="621" y="165" as="targetPoint"/>
                    </mxGeometry>
                </mxCell>
                <mxCell id="157" value="Activity" style="ellipse;whiteSpace=wrap;html=1;align=center;fillColor=#f5f5f5;strokeColor=#666666;fontColor=#0A0A0A;" vertex="1" parent="1">
                    <mxGeometry x="393.5" y="329" width="60" height="20" as="geometry"/>
                </mxCell>
                <mxCell id="158" value="" style="endArrow=none;html=1;rounded=0;entryX=0.25;entryY=0;entryDx=0;entryDy=0;exitX=1;exitY=1;exitDx=0;exitDy=0;fontColor=#0A0A0A;strokeColor=#030303;" edge="1" parent="1" source="157" target="128">
                    <mxGeometry relative="1" as="geometry">
                        <mxPoint x="383.5" y="389" as="sourcePoint"/>
                        <mxPoint x="453.5" y="379" as="targetPoint"/>
                    </mxGeometry>
                </mxCell>
                <mxCell id="159" value="Contains" style="shape=rhombus;perimeter=rhombusPerimeter;whiteSpace=wrap;html=1;align=center;fillColor=#dae8fc;strokeColor=#6c8ebf;fontStyle=0;fontColor=#0A0A0A;" vertex="1" parent="1">
                    <mxGeometry x="428.5" y="440" width="78" height="39" as="geometry"/>
                </mxCell>
                <mxCell id="160" value="&lt;u&gt;Id&lt;/u&gt;" style="ellipse;whiteSpace=wrap;html=1;align=center;fillColor=#f5f5f5;strokeColor=#666666;fontColor=#0A0A0A;" vertex="1" parent="1">
                    <mxGeometry x="304" y="130.5" width="50" height="20" as="geometry"/>
                </mxCell>
                <mxCell id="161" value="" style="endArrow=none;html=1;rounded=0;entryX=0.75;entryY=0;entryDx=0;entryDy=0;exitX=0.5;exitY=1;exitDx=0;exitDy=0;fontColor=#0A0A0A;strokeColor=#030303;" edge="1" parent="1" source="160" target="121">
                    <mxGeometry relative="1" as="geometry">
                        <mxPoint x="224" y="25.5" as="sourcePoint"/>
                        <mxPoint x="279" y="155.5" as="targetPoint"/>
                    </mxGeometry>
                </mxCell>
                <mxCell id="162" value="BookingStartTime" style="ellipse;whiteSpace=wrap;html=1;align=center;fillColor=#f5f5f5;strokeColor=#666666;fontColor=#0A0A0A;" vertex="1" parent="1">
                    <mxGeometry x="701.5" y="160.5" width="110" height="24" as="geometry"/>
                </mxCell>
                <mxCell id="163" value="BookingEndTime" style="ellipse;whiteSpace=wrap;html=1;align=center;fillColor=#f5f5f5;strokeColor=#666666;fontColor=#0A0A0A;" vertex="1" parent="1">
                    <mxGeometry x="701.5" y="192.5" width="110" height="24" as="geometry"/>
                </mxCell>
                <mxCell id="164" value="" style="endArrow=none;html=1;rounded=0;exitX=0;exitY=0.5;exitDx=0;exitDy=0;entryX=1;entryY=0.5;entryDx=0;entryDy=0;fontColor=#0A0A0A;strokeColor=#030303;" edge="1" parent="1" source="162" target="138">
                    <mxGeometry relative="1" as="geometry">
                        <mxPoint x="596.5" y="234.5" as="sourcePoint"/>
                        <mxPoint x="761.8553390593277" y="190.35786437626894" as="targetPoint"/>
                    </mxGeometry>
                </mxCell>
                <mxCell id="165" value="" style="endArrow=none;html=1;rounded=0;exitX=0;exitY=0.5;exitDx=0;exitDy=0;entryX=1;entryY=0.75;entryDx=0;entryDy=0;fontColor=#0A0A0A;strokeColor=#030303;" edge="1" parent="1" source="163" target="138">
                    <mxGeometry relative="1" as="geometry">
                        <mxPoint x="816.5" y="174.5" as="sourcePoint"/>
                        <mxPoint x="761.8553390593277" y="218.64213562373084" as="targetPoint"/>
                    </mxGeometry>
                </mxCell>
                <mxCell id="166" value="&lt;u&gt;Id&lt;/u&gt;" style="ellipse;whiteSpace=wrap;html=1;align=center;fillColor=#f5f5f5;strokeColor=#666666;fontColor=#0A0A0A;" vertex="1" parent="1">
                    <mxGeometry x="589.5" y="75.5" width="50" height="20" as="geometry"/>
                </mxCell>
                <mxCell id="167" value="" style="endArrow=none;html=1;rounded=0;entryX=0.5;entryY=0;entryDx=0;entryDy=0;exitX=0.5;exitY=1;exitDx=0;exitDy=0;fontColor=#0A0A0A;strokeColor=#030303;" edge="1" parent="1" source="166" target="138">
                    <mxGeometry relative="1" as="geometry">
                        <mxPoint x="646.5" y="144.5" as="sourcePoint"/>
                        <mxPoint x="721.1446609406726" y="58.642135623731065" as="targetPoint"/>
                    </mxGeometry>
                </mxCell>
                <mxCell id="168" value="NumberOfPeople" style="ellipse;whiteSpace=wrap;html=1;align=center;fillColor=#f5f5f5;strokeColor=#666666;fontColor=#0A0A0A;" vertex="1" parent="1">
                    <mxGeometry x="646" y="71.5" width="117" height="24.5" as="geometry"/>
                </mxCell>
                <mxCell id="169" value="" style="endArrow=none;html=1;rounded=0;entryX=0.75;entryY=0;entryDx=0;entryDy=0;exitX=0;exitY=1;exitDx=0;exitDy=0;fontColor=#0A0A0A;strokeColor=#030303;" edge="1" parent="1" source="168" target="138">
                    <mxGeometry relative="1" as="geometry">
                        <mxPoint x="476.5" y="104.5" as="sourcePoint"/>
                        <mxPoint x="546.5" y="164.5" as="targetPoint"/>
                    </mxGeometry>
                </mxCell>
                <mxCell id="170" value="&lt;u&gt;Id&lt;/u&gt;" style="ellipse;whiteSpace=wrap;html=1;align=center;fillColor=#f5f5f5;strokeColor=#666666;fontColor=#0A0A0A;" vertex="1" parent="1">
                    <mxGeometry x="739" y="349" width="35" height="20" as="geometry"/>
                </mxCell>
                <mxCell id="171" value="" style="endArrow=none;html=1;rounded=0;exitX=0.75;exitY=0;exitDx=0;exitDy=0;fontColor=#0A0A0A;strokeColor=#030303;" edge="1" parent="1" source="141" target="170">
                    <mxGeometry relative="1" as="geometry">
                        <mxPoint x="878.5" y="409" as="sourcePoint"/>
                        <mxPoint x="963.5" y="439" as="targetPoint"/>
                    </mxGeometry>
                </mxCell>
                <mxCell id="172" value="undergoes" style="shape=rhombus;perimeter=rhombusPerimeter;whiteSpace=wrap;html=1;align=center;fillColor=#dae8fc;strokeColor=#6c8ebf;fontColor=#0A0A0A;" vertex="1" parent="1">
                    <mxGeometry x="574" y="384" width="75" height="37.5" as="geometry"/>
                </mxCell>
                <mxCell id="173" value="" style="endArrow=none;html=1;rounded=0;exitX=0;exitY=0.5;exitDx=0;exitDy=0;entryX=1;entryY=0.5;entryDx=0;entryDy=0;fontColor=#0A0A0A;strokeColor=#030303;" edge="1" parent="1" source="172" target="128">
                    <mxGeometry relative="1" as="geometry">
                        <mxPoint x="723.5" y="219" as="sourcePoint"/>
                        <mxPoint x="678.7130657752182" y="203.19881684484608" as="targetPoint"/>
                    </mxGeometry>
                </mxCell>
                <mxCell id="174" value="n" style="edgeLabel;html=1;align=center;verticalAlign=middle;resizable=0;points=[];fontColor=#030303;labelBackgroundColor=none;" connectable="0" vertex="1" parent="173">
                    <mxGeometry x="0.6578" y="-1" relative="1" as="geometry">
                        <mxPoint y="-6" as="offset"/>
                    </mxGeometry>
                </mxCell>
                <mxCell id="175" value="" style="endArrow=none;html=1;rounded=0;exitX=0;exitY=0.25;exitDx=0;exitDy=0;entryX=1;entryY=0.5;entryDx=0;entryDy=0;fontColor=#0A0A0A;strokeColor=#030303;" edge="1" parent="1" source="141" target="172">
                    <mxGeometry relative="1" as="geometry">
                        <mxPoint x="733.5" y="229" as="sourcePoint"/>
                        <mxPoint x="688.7130657752182" y="213.19881684484608" as="targetPoint"/>
                    </mxGeometry>
                </mxCell>
                <mxCell id="176" value="n" style="edgeLabel;html=1;align=center;verticalAlign=middle;resizable=0;points=[];fontColor=#030303;labelBackgroundColor=none;" connectable="0" vertex="1" parent="175">
                    <mxGeometry x="-0.3532" y="-1" relative="1" as="geometry">
                        <mxPoint x="-1" y="-11" as="offset"/>
                    </mxGeometry>
                </mxCell>
                <mxCell id="177" value="Municipality" style="rounded=1;arcSize=10;whiteSpace=wrap;html=1;align=center;fontStyle=1;fillColor=#d5e8d4;strokeColor=#82b366;fontColor=#0A0A0A;" vertex="1" parent="1">
                    <mxGeometry x="153.5" y="359" width="100" height="40" as="geometry"/>
                </mxCell>
                <mxCell id="178" value="" style="endArrow=none;html=1;rounded=0;entryX=0;entryY=0.5;entryDx=0;entryDy=0;exitX=1;exitY=0.5;exitDx=0;exitDy=0;fontColor=#0A0A0A;strokeColor=#030303;" edge="1" parent="1" source="177" target="180">
                    <mxGeometry relative="1" as="geometry">
                        <mxPoint x="242.5" y="379" as="sourcePoint"/>
                        <mxPoint x="282.5" y="379" as="targetPoint"/>
                    </mxGeometry>
                </mxCell>
                <mxCell id="179" value="1" style="edgeLabel;html=1;align=center;verticalAlign=middle;resizable=0;points=[];fontColor=#030303;labelBackgroundColor=none;" connectable="0" vertex="1" parent="178">
                    <mxGeometry x="-0.4926" y="1" relative="1" as="geometry">
                        <mxPoint x="5" y="-8" as="offset"/>
                    </mxGeometry>
                </mxCell>
                <mxCell id="180" value="Has" style="shape=rhombus;perimeter=rhombusPerimeter;whiteSpace=wrap;html=1;align=center;fillColor=#dae8fc;strokeColor=#6c8ebf;fontStyle=0;fontColor=#0A0A0A;" vertex="1" parent="1">
                    <mxGeometry x="293.5" y="359" width="80" height="40" as="geometry"/>
                </mxCell>
                <mxCell id="181" value="" style="endArrow=none;html=1;rounded=0;entryX=1;entryY=0.5;entryDx=0;entryDy=0;exitX=0;exitY=0.5;exitDx=0;exitDy=0;fontColor=#0A0A0A;strokeColor=#0A0A0A;" edge="1" parent="1" source="128" target="180">
                    <mxGeometry relative="1" as="geometry">
                        <mxPoint x="263.5" y="369" as="sourcePoint"/>
                        <mxPoint x="293.5" y="369" as="targetPoint"/>
                    </mxGeometry>
                </mxCell>
                <mxCell id="182" value="n...*" style="edgeLabel;html=1;align=center;verticalAlign=middle;resizable=0;points=[];fontColor=#030303;labelBackgroundColor=none;" connectable="0" vertex="1" parent="181">
                    <mxGeometry x="-0.4646" relative="1" as="geometry">
                        <mxPoint x="-6" y="-9" as="offset"/>
                    </mxGeometry>
                </mxCell>
                <mxCell id="183" value="&lt;u&gt;Id&lt;/u&gt;" style="ellipse;whiteSpace=wrap;html=1;align=center;fillColor=#f5f5f5;strokeColor=#666666;fontColor=#0A0A0A;" vertex="1" parent="1">
                    <mxGeometry x="153.5" y="312" width="50" height="20" as="geometry"/>
                </mxCell>
                <mxCell id="184" value="Name" style="ellipse;whiteSpace=wrap;html=1;align=center;fillColor=#f5f5f5;strokeColor=#666666;fontColor=#0A0A0A;" vertex="1" parent="1">
                    <mxGeometry x="203.5" y="329" width="50" height="20" as="geometry"/>
                </mxCell>
                <mxCell id="185" value="" style="endArrow=none;html=1;rounded=0;entryX=0.25;entryY=0;entryDx=0;entryDy=0;exitX=0.5;exitY=1;exitDx=0;exitDy=0;fontColor=#0A0A0A;strokeColor=#030303;" edge="1" parent="1" source="183" target="177">
                    <mxGeometry relative="1" as="geometry">
                        <mxPoint x="443.5" y="159" as="sourcePoint"/>
                        <mxPoint x="523.5" y="149" as="targetPoint"/>
                    </mxGeometry>
                </mxCell>
                <mxCell id="186" value="" style="endArrow=none;html=1;rounded=0;entryX=0.75;entryY=0;entryDx=0;entryDy=0;exitX=0.5;exitY=1;exitDx=0;exitDy=0;fontColor=#0A0A0A;strokeColor=#030303;" edge="1" parent="1" source="184" target="177">
                    <mxGeometry relative="1" as="geometry">
                        <mxPoint x="273.5" y="319" as="sourcePoint"/>
                        <mxPoint x="273.5" y="369" as="targetPoint"/>
                    </mxGeometry>
                </mxCell>
                <mxCell id="187" value="" style="endArrow=none;html=1;rounded=0;entryX=0.5;entryY=1;entryDx=0;entryDy=0;exitX=0.5;exitY=0;exitDx=0;exitDy=0;fontColor=#0A0A0A;strokeColor=#030303;" edge="1" parent="1" source="159" target="128">
                    <mxGeometry relative="1" as="geometry">
                        <mxPoint x="578.1446609406785" y="454.85786437627144" as="sourcePoint"/>
                        <mxPoint x="528.5" y="409" as="targetPoint"/>
                    </mxGeometry>
                </mxCell>
                <mxCell id="188" value="1" style="edgeLabel;html=1;align=center;verticalAlign=middle;resizable=0;points=[];fontColor=#030303;labelBackgroundColor=none;" connectable="0" vertex="1" parent="187">
                    <mxGeometry x="0.7799" y="1" relative="1" as="geometry">
                        <mxPoint x="3" y="11" as="offset"/>
                    </mxGeometry>
                </mxCell>
                <mxCell id="189" value="" style="endArrow=none;html=1;rounded=0;entryX=0.5;entryY=1;entryDx=0;entryDy=0;exitX=0.5;exitY=0;exitDx=0;exitDy=0;fontColor=#0A0A0A;strokeColor=#030303;" edge="1" parent="1" source="130" target="159">
                    <mxGeometry relative="1" as="geometry">
                        <mxPoint x="503.5" y="559" as="sourcePoint"/>
                        <mxPoint x="473.5" y="519" as="targetPoint"/>
                    </mxGeometry>
                </mxCell>
                <mxCell id="190" value="n" style="edgeLabel;html=1;align=center;verticalAlign=middle;resizable=0;points=[];fontColor=#030303;labelBackgroundColor=none;" connectable="0" vertex="1" parent="189">
                    <mxGeometry x="-0.4687" relative="1" as="geometry">
                        <mxPoint x="-24" y="4" as="offset"/>
                    </mxGeometry>
                </mxCell>
                <mxCell id="191" value="&lt;u&gt;Id&lt;/u&gt;" style="ellipse;whiteSpace=wrap;html=1;align=center;fillColor=#f5f5f5;strokeColor=#666666;fontColor=#0A0A0A;" vertex="1" parent="1">
                    <mxGeometry x="280.5" y="617.7099999999999" width="40" height="16" as="geometry"/>
                </mxCell>
                <mxCell id="192" value="" style="endArrow=none;html=1;rounded=0;entryX=0.25;entryY=1;entryDx=0;entryDy=0;exitX=1;exitY=0.5;exitDx=0;exitDy=0;fontColor=#0A0A0A;strokeColor=#0A0A0A;" edge="1" parent="1" source="191" target="130">
                    <mxGeometry relative="1" as="geometry">
                        <mxPoint x="439" y="567.6600000000001" as="sourcePoint"/>
                        <mxPoint x="389" y="477.66000000000014" as="targetPoint"/>
                    </mxGeometry>
                </mxCell>
                <mxCell id="193" value="Latitude" style="ellipse;whiteSpace=wrap;html=1;align=center;fillColor=#f5f5f5;strokeColor=#666666;fontColor=#0A0A0A;" vertex="1" parent="1">
                    <mxGeometry x="283.5" y="451.5" width="100" height="20" as="geometry"/>
                </mxCell>
                <mxCell id="194" value="" style="endArrow=none;html=1;rounded=0;entryX=0.25;entryY=1;entryDx=0;entryDy=0;exitX=1;exitY=0.5;exitDx=0;exitDy=0;fontColor=#0A0A0A;strokeColor=#0A0A0A;" edge="1" parent="1" source="193" target="128">
                    <mxGeometry relative="1" as="geometry">
                        <mxPoint x="298.5" y="449" as="sourcePoint"/>
                        <mxPoint x="418.5" y="451" as="targetPoint"/>
                    </mxGeometry>
                </mxCell>
                <mxCell id="195" value="Longitude" style="ellipse;whiteSpace=wrap;html=1;align=center;fillColor=#f5f5f5;strokeColor=#666666;fontColor=#0A0A0A;" vertex="1" parent="1">
                    <mxGeometry x="283.5" y="421.5" width="100" height="20" as="geometry"/>
                </mxCell>
                <mxCell id="196" value="" style="endArrow=none;html=1;rounded=0;exitX=1;exitY=0.5;exitDx=0;exitDy=0;entryX=0;entryY=0.75;entryDx=0;entryDy=0;fontColor=#0A0A0A;strokeColor=#0A0A0A;" edge="1" parent="1" source="195" target="128">
                    <mxGeometry relative="1" as="geometry">
                        <mxPoint x="258.5" y="499" as="sourcePoint"/>
                        <mxPoint x="398.74" y="449.548" as="targetPoint"/>
                    </mxGeometry>
                </mxCell>
                <mxCell id="197" value="Description" style="ellipse;whiteSpace=wrap;html=1;align=center;fillColor=#f5f5f5;strokeColor=#666666;fontColor=#0A0A0A;" vertex="1" parent="1">
                    <mxGeometry x="392" y="299" width="84" height="20" as="geometry"/>
                </mxCell>
                <mxCell id="198" value="" style="endArrow=none;html=1;rounded=0;entryX=1;entryY=1;entryDx=0;entryDy=0;exitX=0.5;exitY=0;exitDx=0;exitDy=0;fontColor=#0A0A0A;strokeColor=#030303;" edge="1" parent="1" source="128" target="197">
                    <mxGeometry relative="1" as="geometry">
                        <mxPoint x="593.5" y="489" as="sourcePoint"/>
                        <mxPoint x="528.5" y="409" as="targetPoint"/>
                    </mxGeometry>
                </mxCell>
                <mxCell id="199" value="UsageRules" style="ellipse;whiteSpace=wrap;html=1;align=center;fillColor=#f5f5f5;strokeColor=#666666;fontColor=#0A0A0A;" vertex="1" parent="1">
                    <mxGeometry x="549" y="335" width="100" height="20" as="geometry"/>
                </mxCell>
                <mxCell id="200" value="" style="endArrow=none;html=1;rounded=0;entryX=0;entryY=0.5;entryDx=0;entryDy=0;exitX=1;exitY=0;exitDx=0;exitDy=0;fontColor=#0A0A0A;strokeColor=#030303;" edge="1" parent="1" source="128" target="199">
                    <mxGeometry relative="1" as="geometry">
                        <mxPoint x="643.5" y="469" as="sourcePoint"/>
                        <mxPoint x="633.5" y="559.0000000000002" as="targetPoint"/>
                    </mxGeometry>
                </mxCell>
                <mxCell id="201" value="Status" style="ellipse;whiteSpace=wrap;html=1;align=center;fillColor=#f5f5f5;strokeColor=#666666;fontColor=#0A0A0A;" vertex="1" parent="1">
                    <mxGeometry x="241.5" y="585.7099999999998" width="60" height="21.82" as="geometry"/>
                </mxCell>
                <mxCell id="202" value="" style="endArrow=none;html=1;rounded=0;entryX=1;entryY=0.5;entryDx=0;entryDy=0;exitX=0;exitY=0.75;exitDx=0;exitDy=0;fontColor=#0A0A0A;strokeColor=#0A0A0A;" edge="1" parent="1" source="130" target="201">
                    <mxGeometry relative="1" as="geometry">
                        <mxPoint x="389.0000000000002" y="637.6600000000001" as="sourcePoint"/>
                        <mxPoint x="389.0000000000002" y="587.6600000000005" as="targetPoint"/>
                    </mxGeometry>
                </mxCell>
                <mxCell id="203" value="Manages" style="shape=rhombus;perimeter=rhombusPerimeter;whiteSpace=wrap;html=1;align=center;fillColor=#dae8fc;strokeColor=#6c8ebf;fontStyle=0;fontColor=#0A0A0A;" vertex="1" parent="1">
                    <mxGeometry x="527.67" y="465" width="86.66" height="43.33" as="geometry"/>
                </mxCell>
                <mxCell id="204" value="Manages" style="shape=rhombus;perimeter=rhombusPerimeter;whiteSpace=wrap;html=1;align=center;fillColor=#dae8fc;strokeColor=#6c8ebf;fontStyle=0;fontColor=#0A0A0A;" vertex="1" parent="1">
                    <mxGeometry x="383.5" y="239" width="80" height="40" as="geometry"/>
                </mxCell>
                <mxCell id="205" value="" style="endArrow=none;html=1;rounded=0;entryX=1;entryY=0.5;entryDx=0;entryDy=0;exitX=0.25;exitY=1;exitDx=0;exitDy=0;fontColor=#0A0A0A;strokeColor=#030303;" edge="1" parent="1" source="141" target="203">
                    <mxGeometry relative="1" as="geometry">
                        <mxPoint x="878.5" y="409" as="sourcePoint"/>
                        <mxPoint x="963.5" y="439" as="targetPoint"/>
                    </mxGeometry>
                </mxCell>
                <mxCell id="206" value="1" style="edgeLabel;html=1;align=center;verticalAlign=middle;resizable=0;points=[];fontColor=#030303;labelBackgroundColor=none;" connectable="0" vertex="1" parent="205">
                    <mxGeometry x="-0.8063" y="-6" relative="1" as="geometry">
                        <mxPoint x="-17" y="7" as="offset"/>
                    </mxGeometry>
                </mxCell>
                <mxCell id="207" value="" style="endArrow=none;html=1;rounded=0;exitX=1;exitY=0.25;exitDx=0;exitDy=0;entryX=0;entryY=0.5;entryDx=0;entryDy=0;fontColor=#0A0A0A;strokeColor=#030303;" edge="1" parent="1" source="130" target="203">
                    <mxGeometry relative="1" as="geometry">
                        <mxPoint x="853.5" y="409" as="sourcePoint"/>
                        <mxPoint x="783.5" y="639" as="targetPoint"/>
                    </mxGeometry>
                </mxCell>
                <mxCell id="208" value="0..n" style="edgeLabel;html=1;align=center;verticalAlign=middle;resizable=0;points=[];fontColor=#030303;labelBackgroundColor=none;" connectable="0" vertex="1" parent="207">
                    <mxGeometry x="-0.7661" y="2" relative="1" as="geometry">
                        <mxPoint x="-2" y="-14" as="offset"/>
                    </mxGeometry>
                </mxCell>
                <mxCell id="209" value="" style="endArrow=none;html=1;rounded=0;entryX=0;entryY=0.5;entryDx=0;entryDy=0;exitX=1;exitY=0;exitDx=0;exitDy=0;fontColor=#0A0A0A;strokeColor=#030303;" edge="1" parent="1" source="177" target="204">
                    <mxGeometry relative="1" as="geometry">
                        <mxPoint x="853.5" y="369" as="sourcePoint"/>
                        <mxPoint x="853.5" y="619" as="targetPoint"/>
                    </mxGeometry>
                </mxCell>
                <mxCell id="210" value="1" style="edgeLabel;html=1;align=center;verticalAlign=middle;resizable=0;points=[];fontColor=#030303;labelBackgroundColor=none;" connectable="0" vertex="1" parent="209">
                    <mxGeometry x="-0.8063" y="-6" relative="1" as="geometry">
                        <mxPoint as="offset"/>
                    </mxGeometry>
                </mxCell>
                <mxCell id="211" value="" style="endArrow=none;html=1;rounded=0;entryX=0.25;entryY=1;entryDx=0;entryDy=0;exitX=1;exitY=0.5;exitDx=0;exitDy=0;fontColor=#0A0A0A;strokeColor=#030303;" edge="1" parent="1" source="204" target="138">
                    <mxGeometry relative="1" as="geometry">
                        <mxPoint x="693.5" y="269" as="sourcePoint"/>
                        <mxPoint x="853.5" y="-1" as="targetPoint"/>
                    </mxGeometry>
                </mxCell>
                <mxCell id="212" value="0..n" style="edgeLabel;html=1;align=center;verticalAlign=middle;resizable=0;points=[];fontColor=#030303;labelBackgroundColor=none;" connectable="0" vertex="1" parent="211">
                    <mxGeometry x="0.8827" y="-6" relative="1" as="geometry">
                        <mxPoint x="-6" y="14" as="offset"/>
                    </mxGeometry>
                </mxCell>
                <mxCell id="213" value="LastName" style="ellipse;whiteSpace=wrap;html=1;align=center;fillColor=#f5f5f5;strokeColor=#666666;fontColor=#0A0A0A;" vertex="1" parent="1">
                    <mxGeometry x="96.5" y="189" width="80" height="20" as="geometry"/>
                </mxCell>
                <mxCell id="214" value="" style="endArrow=none;html=1;rounded=0;entryX=0;entryY=0.25;entryDx=0;entryDy=0;exitX=1;exitY=0.5;exitDx=0;exitDy=0;fontColor=#0A0A0A;strokeColor=#030303;" edge="1" parent="1" source="213" target="121">
                    <mxGeometry relative="1" as="geometry">
                        <mxPoint x="366.5" y="25.5" as="sourcePoint"/>
                        <mxPoint x="304" y="155.5" as="targetPoint"/>
                    </mxGeometry>
                </mxCell>
                <mxCell id="215" value="0..n" style="edgeLabel;html=1;align=center;verticalAlign=middle;resizable=0;points=[];fontColor=#030303;labelBackgroundColor=none;" connectable="0" vertex="1" parent="1">
                    <mxGeometry x="598.9972924181633" y="189.00068372156667" as="geometry"/>
                </mxCell>
                <mxCell id="216" value="1" style="edgeLabel;html=1;align=center;verticalAlign=middle;resizable=0;points=[];fontColor=#030303;labelBackgroundColor=none;" connectable="0" vertex="1" parent="1">
                    <mxGeometry x="493.4972924181633" y="329.0006837215667" as="geometry">
                        <mxPoint x="6" y="6" as="offset"/>
                    </mxGeometry>
                </mxCell>
            </root>
        </mxGraphModel>
    </diagram>
</mxfile>